<svg xmlns="http://www.w3.org/2000/svg" width="64" height="64" fill="none" id="login"><path fill="#2B3151" fill-rule="evenodd" d="M53.334 12a6.667 6.667 0 0 0-6.667-6.667H17.333A6.667 6.667 0 0 0 10.668 12v7.333a1.333 1.333 0 0 0 2.667 0V12a4 4 0 0 1 4-4h29.333a4 4 0 0 1 4 4v40a4 4 0 0 1-4 4H17.333a4 4 0 0 1-4-4v-7.334a1.333 1.333 0 0 0-2.666 0V52a6.667 6.667 0 0 0 6.667 6.666h29.333A6.667 6.667 0 0 0 53.333 52V12Z" clip-rule="evenodd"></path><path fill="#445CDA" fill-rule="evenodd" d="M28.39 24.39c-.52.521-.52 1.365 0 1.886l4.391 4.39h-20.78a1.333 1.333 0 1 0 0 2.667h20.78l-4.39 4.39a1.333 1.333 0 1 0 1.885 1.886l6.667-6.666c.52-.52.52-1.365 0-1.886l-6.667-6.666a1.333 1.333 0 0 0-1.885 0Z" clip-rule="evenodd"></path></svg>