<svg xmlns="http://www.w3.org/2000/svg" xmlns:xlink="http://www.w3.org/1999/xlink" data-name="Layer 1" viewBox="0 0 512 512" id="user-protection"><defs><linearGradient id="a" x1="169.4" x2="169.4" y1="18" y2="508.799" gradientUnits="userSpaceOnUse"><stop offset="0" stop-color="#00efd1"></stop><stop offset="1" stop-color="#00acea"></stop></linearGradient><linearGradient id="b" x1="256" x2="256" y1="18" y2="508.799" xlink:href="#a"></linearGradient><linearGradient id="c" x1="366.334" x2="366.334" y1="18" y2="508.799" xlink:href="#a"></linearGradient></defs><path fill="url(#a)" d="M169.369,164h.1a78,78,0,1,0-.1-156h-.034a78,78,0,1,0,.034,156ZM169.4,24h.028a62,62,0,1,1,.034,124h-.1A62,62,0,1,1,169.4,24Z"></path><path fill="url(#b)" d="M467.346,293.691,369.957,245.9a8.1,8.1,0,0,0-7.091,0l-66.935,32.669A111.119,111.119,0,0,0,187.452,191H151.515C90.311,191,40,240.95,40,302.19V414.26c0,4.418,3.943,7.74,8.361,7.74H268.72c6.629,15,17.027,28.425,29.154,36.693l63.952,43.682a7.963,7.963,0,0,0,9.016.048l64.131-43.606C455.979,444.5,472,414.542,472,389.132v-88.26A8.172,8.172,0,0,0,467.346,293.691ZM56,406V302.2c0-52.418,43.116-95.2,95.528-95.2h35.911a95.086,95.086,0,0,1,93.577,78.861l-15.52,7.645a8.089,8.089,0,0,0-4.5,7.236v88.39A72.348,72.348,0,0,0,263.194,406Zm400-16.868c0,19.914-13.576,45.248-30.042,56.473l-59.534,40.541-59.5-40.542C290.454,434.379,277,409.046,277,389.132v-83.4l89.5-43.739L456,305.855Z"></path><path fill="url(#c)" d="M334.947,368.283a8,8,0,0,0-11.369,11.258l24.915,25.123A7.944,7.944,0,0,0,354.158,407h.02a7.971,7.971,0,0,0,5.657-2.308l49.227-49.211a8,8,0,1,0-11.314-11.3l-43.543,43.547Z"></path></svg>